REM DIRINDEX 1\2,1\3,1\4,1\5
REM DIRNAME "folder01","folder02","folder03","folder04","folder05"
TITLE ""
FILE "1Q_t_1401-1409.mp3" MP3
  TRACK 01 AUDIO
    TITLE "0:"
    INDEX 01 00:00:00
  TRACK 02 AUDIO
    TITLE "2:cjc172_5179"
    INDEX 01 00:00:24
  TRACK 03 AUDIO
    TITLE "0:"
    INDEX 01 00:03:30
  TRACK 04 AUDIO
    TITLE "2:cjc172_5180"
    INDEX 01 00:03:73
  TRACK 05 AUDIO
    TITLE "0:"
    INDEX 01 00:05:49
  TRACK 06 AUDIO
    TITLE "2:cjc172_5181"
    INDEX 01 00:06:25
  TRACK 07 AUDIO
    TITLE "0:"
    INDEX 01 00:07:26
  TRACK 08 AUDIO
    TITLE "3:cjc172_5182"
    INDEX 01 00:07:71
  TRACK 09 AUDIO
    TITLE "0:"
    INDEX 01 00:09:09
  TRACK 10 AUDIO
    TITLE "4:cjc172_5183"
    INDEX 01 00:09:19
  TRACK 11 AUDIO
    TITLE "0:"
    INDEX 01 00:12:64
  TRACK 12 AUDIO
    TITLE "5:cjc172_5184"
    INDEX 01 00:12:70
  TRACK 13 AUDIO
    TITLE "0:"
    INDEX 01 00:16:72
  TRACK 14 AUDIO
    TITLE "3:cjc172_5185"
    INDEX 01 00:17:42
  TRACK 15 AUDIO
    TITLE "0:"
    INDEX 01 00:18:59
  TRACK 16 AUDIO
    TITLE "4:cjc172_5186"
    INDEX 01 00:18:71
  TRACK 17 AUDIO
    TITLE "0:"
    INDEX 01 00:22:18
  TRACK 18 AUDIO
    TITLE "5:cjc172_5187"
    INDEX 01 00:22:28
  TRACK 19 AUDIO
    TITLE "0:"
    INDEX 01 00:27:33
  TRACK 20 AUDIO
    TITLE "3:cjc172_5188"
    INDEX 01 00:28:03
  TRACK 21 AUDIO
    TITLE "0:"
    INDEX 01 00:29:08
  TRACK 22 AUDIO
    TITLE "4:cjc172_5189"
    INDEX 01 00:29:18
  TRACK 23 AUDIO
    TITLE "0:"
    INDEX 01 00:30:37
  TRACK 24 AUDIO
    TITLE "5:cjc172_5190"
    INDEX 01 00:30:47
  TRACK 25 AUDIO
    TITLE "0:"
    INDEX 01 00:35:18
  TRACK 26 AUDIO
    TITLE "3:cjc172_5191"
    INDEX 01 00:35:64
  TRACK 27 AUDIO
    TITLE "0:"
    INDEX 01 00:36:73
  TRACK 28 AUDIO
    TITLE "4:cjc172_5192"
    INDEX 01 00:37:06
  TRACK 29 AUDIO
    TITLE "0:"
    INDEX 01 00:39:34
  TRACK 30 AUDIO
    TITLE "5:cjc172_5193"
    INDEX 01 00:39:42
  TRACK 31 AUDIO
    TITLE "0:"
    INDEX 01 00:44:19
  TRACK 32 AUDIO
    TITLE "3:cjc172_5194"
    INDEX 01 00:44:64
  TRACK 33 AUDIO
    TITLE "0:"
    INDEX 01 00:46:18
  TRACK 34 AUDIO
    TITLE "4:cjc172_5195"
    INDEX 01 00:46:26
  TRACK 35 AUDIO
    TITLE "0:"
    INDEX 01 00:49:22
  TRACK 36 AUDIO
    TITLE "5:cjc172_5196"
    INDEX 01 00:49:28
  TRACK 37 AUDIO
    TITLE "0:"
    INDEX 01 00:54:22
  TRACK 38 AUDIO
    TITLE "3:cjc172_5197"
    INDEX 01 00:54:67
  TRACK 39 AUDIO
    TITLE "0:"
    INDEX 01 00:55:72
  TRACK 40 AUDIO
    TITLE "4:cjc172_5198"
    INDEX 01 00:56:05
  TRACK 41 AUDIO
    TITLE "0:"
    INDEX 01 00:57:51
  TRACK 42 AUDIO
    TITLE "5:cjc172_5199"
    INDEX 01 00:57:57
  TRACK 43 AUDIO
    TITLE "0:"
    INDEX 01 01:02:23
  TRACK 44 AUDIO
    TITLE "3:cjc172_5200"
    INDEX 01 01:02:66
  TRACK 45 AUDIO
    TITLE "0:"
    INDEX 01 01:04:08
  TRACK 46 AUDIO
    TITLE "4:cjc172_5201"
    INDEX 01 01:04:16
  TRACK 47 AUDIO
    TITLE "0:"
    INDEX 01 01:05:43
  TRACK 48 AUDIO
    TITLE "5:cjc172_5202"
    INDEX 01 01:05:51
  TRACK 49 AUDIO
    TITLE "0:"
    INDEX 01 01:09:68
  TRACK 50 AUDIO
    TITLE "3:cjc172_5203"
    INDEX 01 01:10:40
  TRACK 51 AUDIO
    TITLE "0:"
    INDEX 01 01:11:46
  TRACK 52 AUDIO
    TITLE "4:cjc172_5204"
    INDEX 01 01:11:52
  TRACK 53 AUDIO
    TITLE "0:"
    INDEX 01 01:13:03
  TRACK 54 AUDIO
    TITLE "5:cjc172_5205"
    INDEX 01 01:13:09
  TRACK 55 AUDIO
    TITLE "0:"
    INDEX 01 01:17:56
  TRACK 56 AUDIO
    TITLE "3:cjc172_5206"
    INDEX 01 01:18:28
  TRACK 57 AUDIO
    TITLE "0:"
    INDEX 01 01:19:31
  TRACK 58 AUDIO
    TITLE "4:cjc172_5207"
    INDEX 01 01:19:39
  TRACK 59 AUDIO
    TITLE "0:"
    INDEX 01 01:21:11
  TRACK 60 AUDIO
    TITLE "5:cjc172_5208"
    INDEX 01 01:21:17
  TRACK 61 AUDIO
    TITLE "0:"
    INDEX 01 01:25:48
